<mxfile host="Electron" agent="Mozilla/5.0 (Windows NT 10.0; Win64; x64) AppleWebKit/537.36 (KHTML, like Gecko) draw.io/26.2.15 Chrome/134.0.6998.205 Electron/35.2.1 Safari/537.36" version="26.2.15">
  <diagram name="Page-1" id="zlWNSXtMoy9rusxttmJT">
    <mxGraphModel dx="786" dy="524" grid="1" gridSize="10" guides="1" tooltips="1" connect="1" arrows="1" fold="1" page="1" pageScale="1" pageWidth="850" pageHeight="1100" math="0" shadow="0">
      <root>
        <mxCell id="0" />
        <mxCell id="1" parent="0" />
        <mxCell id="-SEFGKDfxOVD3mIa68dv-10" style="edgeStyle=orthogonalEdgeStyle;rounded=0;orthogonalLoop=1;jettySize=auto;html=1;entryX=0.5;entryY=0;entryDx=0;entryDy=0;" parent="1" source="-SEFGKDfxOVD3mIa68dv-1" target="-SEFGKDfxOVD3mIa68dv-2" edge="1">
          <mxGeometry relative="1" as="geometry" />
        </mxCell>
        <mxCell id="-SEFGKDfxOVD3mIa68dv-1" value="Mulai" style="rounded=1;whiteSpace=wrap;html=1;" parent="1" vertex="1">
          <mxGeometry x="360" y="130" width="120" height="30" as="geometry" />
        </mxCell>
        <mxCell id="-SEFGKDfxOVD3mIa68dv-19" style="edgeStyle=orthogonalEdgeStyle;rounded=0;orthogonalLoop=1;jettySize=auto;html=1;entryX=0.5;entryY=0;entryDx=0;entryDy=0;" parent="1" source="-SEFGKDfxOVD3mIa68dv-2" target="-SEFGKDfxOVD3mIa68dv-8" edge="1">
          <mxGeometry relative="1" as="geometry" />
        </mxCell>
        <mxCell id="-SEFGKDfxOVD3mIa68dv-2" value="V&amp;nbsp;← [input( V&lt;sub&gt;i&amp;nbsp;&lt;/sub&gt;) for i in range(5)]&lt;div&gt;U ← [input( U&lt;sub&gt;i&amp;nbsp;&lt;/sub&gt;) for i in range(5)]&lt;/div&gt;&lt;div&gt;W&amp;nbsp;← [(V[i] + U[i]) for i in range(5)]&lt;/div&gt;" style="rounded=0;whiteSpace=wrap;html=1;" parent="1" vertex="1">
          <mxGeometry x="310" y="189" width="220" height="80" as="geometry" />
        </mxCell>
        <mxCell id="-SEFGKDfxOVD3mIa68dv-15" style="edgeStyle=orthogonalEdgeStyle;rounded=0;orthogonalLoop=1;jettySize=auto;html=1;entryX=0.5;entryY=0;entryDx=0;entryDy=0;" parent="1" source="-SEFGKDfxOVD3mIa68dv-8" target="-SEFGKDfxOVD3mIa68dv-9" edge="1">
          <mxGeometry relative="1" as="geometry" />
        </mxCell>
        <mxCell id="-SEFGKDfxOVD3mIa68dv-8" value="output(W)" style="shape=parallelogram;perimeter=parallelogramPerimeter;whiteSpace=wrap;html=1;fixedSize=1;" parent="1" vertex="1">
          <mxGeometry x="360" y="300" width="120" height="40" as="geometry" />
        </mxCell>
        <mxCell id="-SEFGKDfxOVD3mIa68dv-9" value="Selesai" style="rounded=1;whiteSpace=wrap;html=1;" parent="1" vertex="1">
          <mxGeometry x="360" y="380" width="120" height="35" as="geometry" />
        </mxCell>
      </root>
    </mxGraphModel>
  </diagram>
</mxfile>
